<svg width="15" height="14" viewBox="0 0 15 14" fill="none" xmlns="http://www.w3.org/2000/svg">
<path d="M1.28906 5.4696H13.7109C13.9043 5.4696 14.0625 5.60671 14.0625 5.77429V12.3759C14.0625 13.0487 13.4326 13.5946 12.6562 13.5946H2.34375C1.56738 13.5946 0.9375 13.0487 0.9375 12.3759V5.77429C0.9375 5.60671 1.0957 5.4696 1.28906 5.4696ZM14.0625 4.35242V3.43835C14.0625 2.7655 13.4326 2.2196 12.6562 2.2196H11.25V0.899292C11.25 0.731714 11.0918 0.594604 10.8984 0.594604H9.72656C9.5332 0.594604 9.375 0.731714 9.375 0.899292V2.2196H5.625V0.899292C5.625 0.731714 5.4668 0.594604 5.27344 0.594604H4.10156C3.9082 0.594604 3.75 0.731714 3.75 0.899292V2.2196H2.34375C1.56738 2.2196 0.9375 2.7655 0.9375 3.43835V4.35242C0.9375 4.51999 1.0957 4.6571 1.28906 4.6571H13.7109C13.9043 4.6571 14.0625 4.51999 14.0625 4.35242Z" fill="#E063A3"/>
</svg>