<svg width="13" height="13" viewBox="0 0 13 13" fill="none" xmlns="http://www.w3.org/2000/svg">
<path d="M8.71531 6.5L12.0379 3.17736C12.4457 2.76963 12.4457 2.10855 12.0379 1.70049L11.2995 0.962051C10.8918 0.554316 10.2307 0.554316 9.82264 0.962051L6.5 4.28469L3.17736 0.962051C2.76963 0.554316 2.10855 0.554316 1.70049 0.962051L0.962051 1.70049C0.554316 2.10822 0.554316 2.7693 0.962051 3.17736L4.28469 6.5L0.962051 9.82264C0.554316 10.2304 0.554316 10.8914 0.962051 11.2995L1.70049 12.0379C2.10822 12.4457 2.76963 12.4457 3.17736 12.0379L6.5 8.71531L9.82264 12.0379C10.2304 12.4457 10.8918 12.4457 11.2995 12.0379L12.0379 11.2995C12.4457 10.8918 12.4457 10.2307 12.0379 9.82264L8.71531 6.5Z" fill="#F0281D"/>
</svg>